<?xml version="1.0" standalone="no"?><!DOCTYPE svg PUBLIC "-//W3C//DTD SVG 1.1//EN" "http://www.w3.org/Graphics/SVG/1.1/DTD/svg11.dtd"><svg t="1556599932953" class="icon" style="" viewBox="0 0 1024 1024" version="1.1" xmlns="http://www.w3.org/2000/svg" p-id="15100" xmlns:xlink="http://www.w3.org/1999/xlink" width="200" height="200"><defs><style type="text/css"></style></defs><path d="M169.24 32h685.314a137.104 137.104 0 0 1 137.103 137.104v549.785a137.104 137.104 0 0 1-137.103 137.104H677.895l-112.767 112.22a75.407 75.407 0 0 1-106.461-0.138L346.31 855.925H169.24A137.104 137.104 0 0 1 32.138 718.82V169.104A137.104 137.104 0 0 1 169.241 32z m0 68.552a68.552 68.552 0 0 0-68.551 68.552v549.785a68.552 68.552 0 0 0 68.552 68.552h177.07a68.552 68.552 0 0 1 48.465 20.017L507.133 919.61a6.855 6.855 0 0 0 9.597 0l112.768-112.22a68.552 68.552 0 0 1 48.397-20.016h176.659a68.552 68.552 0 0 0 68.551-68.552V169.104a68.552 68.552 0 0 0-68.551-68.552H169.24zM428.848 354.81a34.276 34.276 0 0 1-68.552 0c0-92.203 67.66-150.746 152.253-149.238 83.428 1.44 151.089 60.737 151.089 149.238 0 58.2-19.058 87.06-63.96 120.102l-8.5 6.307c-33.59 24.953-44.97 44.902-44.97 99.606a34.276 34.276 0 0 1-68.551 0c0-77.875 22.622-117.36 72.527-154.584l8.844-6.513c29.066-21.388 36.058-32.013 36.058-64.918 0-48.672-35.647-79.863-83.702-80.686-48.123-0.823-82.536 28.929-82.536 80.686z m82.947 363.324a34.276 34.276 0 1 1 0-68.551 34.276 34.276 0 0 1 0 68.551z" p-id="15101"></path></svg>