<?xml version="1.0" standalone="no"?><!DOCTYPE svg PUBLIC "-//W3C//DTD SVG 1.1//EN" "http://www.w3.org/Graphics/SVG/1.1/DTD/svg11.dtd"><svg t="1572513961758" class="icon" viewBox="0 0 1024 1024" version="1.1" xmlns="http://www.w3.org/2000/svg" p-id="75830" width="200" height="200" xmlns:xlink="http://www.w3.org/1999/xlink"><defs><style type="text/css"></style></defs><path d="M100.324206 275.748571a497.664 497.664 0 0 1 179.785143-161.645714 55.149714 55.149714 0 0 0-51.565715-97.572571 608.402286 608.402286 0 0 0-219.721143 197.485714 55.149714 55.149714 0 0 0 91.501715 61.659429z m410.624-183.661714a459.849143 459.849143 0 0 0-351.232 756.516572L73.188206 935.058286a36.790857 36.790857 0 1 0 52.077714 52.077714l86.308571-86.308571a458.020571 458.020571 0 0 0 299.373715 110.884571 457.947429 457.947429 0 0 0 296.740571-108.544l83.894857 83.968a36.644571 36.644571 0 0 0 52.004572 0 36.790857 36.790857 0 0 0 0-52.077714l-83.675429-83.675429a459.849143 459.849143 0 0 0-348.891428-759.222857z m273.115428 732.891429a383.707429 383.707429 0 0 1-273.115428 113.152c-103.131429 0-200.192-40.228571-273.115429-113.078857a383.707429 383.707429 0 0 1-113.152-273.115429c0-103.204571 40.228571-200.192 113.152-273.188571a383.707429 383.707429 0 0 1 273.115429-113.078858c103.131429 0 200.192 40.228571 273.115428 113.078858a383.707429 383.707429 0 0 1 113.152 273.188571c0 103.131429-40.228571 200.118857-113.152 273.115429z m229.083429-610.889143a608.475429 608.475429 0 0 0-219.794286-197.485714 55.149714 55.149714 0 1 0-51.492571 97.572571 497.737143 497.737143 0 0 1 179.712 161.499429 55.149714 55.149714 0 1 0 91.574857-61.586286zM658.111634 515.145143H547.739063V294.4a36.790857 36.790857 0 1 0-73.581714 0v257.462857c0 20.333714 16.457143 36.790857 36.790857 36.790857h147.163428a36.790857 36.790857 0 0 0 0-73.508571z" p-id="75831"></path></svg>