<?xml version="1.0" standalone="no"?><!DOCTYPE svg PUBLIC "-//W3C//DTD SVG 1.1//EN" "http://www.w3.org/Graphics/SVG/1.1/DTD/svg11.dtd"><svg t="1556534859903" class="icon" style="" viewBox="0 0 1024 1024" version="1.1" xmlns="http://www.w3.org/2000/svg" p-id="21221" xmlns:xlink="http://www.w3.org/1999/xlink" width="200" height="200"><defs><style type="text/css"></style></defs><path d="M512 138.24c209.92 0 380.928 171.008 380.928 380.928S721.92 899.584 512 899.584s-380.928-171.008-380.928-380.928S302.08 138.24 512 138.24M512 79.36c-242.688 0-439.296 196.608-439.296 439.296 0 242.688 196.608 439.296 439.296 439.296 242.688 0 439.296-196.608 439.296-439.296C951.296 275.968 754.688 79.36 512 79.36L512 79.36z" p-id="21222"></path><path d="M512 753.152c-124.928 0-233.472-88.576-258.56-210.432-3.072-15.872 7.168-31.232 23.04-34.816 15.872-3.584 31.232 7.168 34.816 23.04 19.456 94.72 103.936 163.84 200.704 163.84 99.328 0 183.808-70.656 201.728-167.936 3.072-15.872 17.92-26.112 34.304-23.552 15.872 3.072 26.624 18.432 23.552 34.304C748.544 662.016 639.488 753.152 512 753.152z" p-id="21223"></path><path d="M512 835.072c-16.384 0-29.184-13.312-29.184-29.184L482.816 337.408c0-16.384 13.312-29.184 29.184-29.184 16.384 0 29.184 13.312 29.184 29.184l0 468.48C541.184 821.76 528.384 835.072 512 835.072z" p-id="21224"></path><path d="M627.2 463.872l-230.4 0c-16.384 0-29.184-13.312-29.184-29.184s13.312-29.184 29.184-29.184l230.4 0c16.384 0 29.184 13.312 29.184 29.184S643.072 463.872 627.2 463.872z" p-id="21225"></path><path d="M541.184 346.624 482.816 346.624c-16.384 0-29.184-13.312-29.184-29.184s13.312-29.184 29.184-29.184l58.368 0c16.384 0 29.184 13.312 29.184 29.184S557.568 346.624 541.184 346.624z" p-id="21226"></path><path d="M244.736 647.68c-4.096 0-8.192-1.024-11.776-2.56-14.848-6.656-21.504-24.064-14.848-38.912l38.912-86.528c6.656-14.848 24.064-21.504 38.912-14.848l86.528 38.912c14.848 6.656 21.504 24.064 14.848 38.912-6.656 14.848-24.064 21.504-38.912 14.848l-59.904-26.624L271.36 630.272C266.752 641.024 256 647.68 244.736 647.68z" p-id="21227"></path><path d="M781.824 647.68c-11.264 0-22.016-6.656-26.624-17.408l-26.624-59.904-59.904 26.624c-14.848 6.656-32.256 0-38.912-14.848-6.656-14.848 0-32.256 14.848-38.912l86.528-38.912c14.848-6.656 32.256 0 38.912 14.848l38.912 86.528c6.656 14.848 0 32.256-14.848 38.912C789.504 646.656 785.408 647.68 781.824 647.68z" p-id="21228"></path></svg>