<?xml version="1.0" standalone="no"?><!DOCTYPE svg PUBLIC "-//W3C//DTD SVG 1.1//EN" "http://www.w3.org/Graphics/SVG/1.1/DTD/svg11.dtd"><svg t="1572512594124" class="icon" viewBox="0 0 1024 1024" version="1.1" xmlns="http://www.w3.org/2000/svg" p-id="14735" xmlns:xlink="http://www.w3.org/1999/xlink" width="200" height="200"><defs><style type="text/css"></style></defs><path d="M851.7632 286.72h-193.7408v49.7664h154.0096l63.0784 239.2064h-204.8L595.968 675.84h-173.8752L348.16 575.2832H143.36l63.0784-239.2064h154.0096V286.72H166.5024L86.2208 600.4736 166.912 923.648h684.4416l80.6912-323.1744L851.7632 286.72z m-39.3216 587.1616H204.8L143.36 625.0496h179.2l74.3424 99.5328h223.8464l74.5472-99.5328h179.2l-61.44 248.832z" fill="#ffffff" p-id="14736"></path><path d="M384.8192 505.6512h248.4224V266.24h106.9056L509.1328 112.4352 278.1184 266.24h106.9056v239.4112z m49.5616-283.8528l74.5472-49.7664 74.5472 49.7664v234.2912h-148.8896V222.0032z" fill="#ffffff" p-id="14737"></path></svg>