<?xml version="1.0" standalone="no"?><!DOCTYPE svg PUBLIC "-//W3C//DTD SVG 1.1//EN" "http://www.w3.org/Graphics/SVG/1.1/DTD/svg11.dtd"><svg t="1572514930306" class="icon" viewBox="0 0 1024 1024" version="1.1" xmlns="http://www.w3.org/2000/svg" p-id="91609" xmlns:xlink="http://www.w3.org/1999/xlink" width="200" height="200"><defs><style type="text/css"></style></defs><path d="M962.346667 628.608l-90.737778-339.811556a28.444444 28.444444 0 0 0-27.491556-21.105777H688.540444a28.444444 28.444444 0 0 0 0 56.888889h133.731556l76.017778 284.672H692.295111c-8.661333 0-16.881778 3.953778-22.257778 10.752l-78.705777 99.015111H418.986667l-70.016-97.877334a28.487111 28.487111 0 0 0-23.139556-11.889777H119.224889l70.030222-281.187556H332.8a28.444444 28.444444 0 0 0 0-56.888889H167.025778c-13.056 0-24.448 8.888889-27.591111 21.575111L53.930667 636.032a28.302222 28.302222 0 0 0 0.213333 14.535111l87.253333 311.936a28.444444 28.444444 0 0 0 27.392 20.778667H827.875556c2.574222 1.792 5.404444 3.285333 8.590222 4.181333a28.458667 28.458667 0 0 0 35.057778-19.726222l90.737777-324.124445c1.365333-4.906667 1.393778-10.083556 0.085334-15.004444zM117.560889 666.140444h193.649778l70.016 97.877334c5.347556 7.452444 13.952 11.889778 23.139555 11.889778h200.675556c8.661333 0 16.881778-3.953778 22.257778-10.752l78.705777-99.015112h190.862223l-72.860445 260.252445H190.364444L117.560889 666.140444z" fill="#7F60BC" p-id="91610"></path><path d="M299.662222 233.941333h0.142222l71.836445-0.369777 0.796444 245.632a28.444444 28.444444 0 0 0 28.444445 28.344888h218.126222a28.444444 28.444444 0 0 0 28.444444-28.444444V229.191111H710.471111a28.444444 28.444444 0 0 0 12.103111-54.200889l-200.675555-121.073778a28.416 28.416 0 0 0-29.553778 0.113778l-207.516445 127.203556a28.444444 28.444444 0 0 0 14.833778 52.707555z m207.644445-122.353777l102.926222 62.094222a28.458667 28.458667 0 0 0-19.683556 27.064889v249.898666H429.226667l-0.796445-245.76a28.472889 28.472889 0 0 0-27.150222-28.316444l106.026667-64.981333z" fill="#7F60BC" p-id="91611"></path></svg>