<?xml version="1.0" standalone="no"?><!DOCTYPE svg PUBLIC "-//W3C//DTD SVG 1.1//EN" "http://www.w3.org/Graphics/SVG/1.1/DTD/svg11.dtd"><svg t="1572490667440" class="icon" viewBox="0 0 1024 1024" version="1.1" xmlns="http://www.w3.org/2000/svg" p-id="1345" xmlns:xlink="http://www.w3.org/1999/xlink" width="200" height="200"><defs><style type="text/css"></style></defs><path d="M384.395636 407.808l360.680728-134.144a11.310545 11.310545 0 0 1 8.913454 0.418909c1.629091 0.791273 4.561455 2.699636 6.027637 6.702546l45.242181 127.022545H384.395636z m125.952-286.836364a11.543273 11.543273 0 0 1 16.570182 0.698182l110.545455 116.130909-409.274182 152.157091L510.347636 120.948364zM965.794909 744.727273a34.909091 34.909091 0 0 0 34.909091-34.909091V455.307636c0-26.251636-20.805818-47.546182-46.545455-47.546181h-74.612363l-53.946182-151.389091a81.989818 81.989818 0 0 0-51.991273-50.920728c-18.013091-5.934545-37.701818-4.328727-55.412363 2.280728l-8.773819 3.258181L577.163636 72.145455a80.523636 80.523636 0 0 0-114.455272-3.328L107.170909 407.808H69.818182c-25.693091 0-46.545455 21.294545-46.545455 47.546182v474.530909C23.272727 956.136727 44.125091 977.454545 69.818182 977.454545h884.363636c25.716364 0 46.545455-21.317818 46.545455-47.569454V872.727273a34.909091 34.909091 0 1 0-69.818182 0v33.396363H93.090909V479.115636h837.818182V709.818182a34.909091 34.909091 0 0 0 34.909091 34.909091z m-345.437091-57.483637c17.291636 0 31.278545-13.498182 31.278546-30.161454 0-16.64-13.986909-30.114909-31.278546-30.114909h-39.633454l58.740363-65.070546a29.370182 29.370182 0 0 0-3.095272-42.496 32.116364 32.116364 0 0 0-44.148364 2.955637L512 611.165091l-80.197818-88.832a32.116364 32.116364 0 0 0-44.148364-2.955636 29.370182 29.370182 0 0 0-3.095273 42.519272l58.740364 65.070546h-39.633454c-17.291636 0-31.301818 13.498182-31.301819 30.114909 0 16.663273 14.010182 30.161455 31.301819 30.161454h77.032727v55.668364h-77.032727c-17.291636 0-31.301818 13.498182-31.301819 30.138182 0 16.616727 14.010182 30.114909 31.301819 30.114909h77.032727v51.060364c0 16.593455 14.033455 30.114909 31.301818 30.114909 17.291636 0 31.301818-13.498182 31.301818-30.114909v-51.060364h77.032727c17.314909 0 31.301818-13.498182 31.301819-30.114909 0-16.663273-13.986909-30.161455-31.278546-30.161455h-77.056V687.243636h77.032727z" p-id="1346"></path></svg>