<?xml version="1.0" standalone="no"?><!DOCTYPE svg PUBLIC "-//W3C//DTD SVG 1.1//EN" "http://www.w3.org/Graphics/SVG/1.1/DTD/svg11.dtd"><svg t="1572512042683" class="icon" viewBox="0 0 1024 1024" version="1.1" xmlns="http://www.w3.org/2000/svg" p-id="7502" xmlns:xlink="http://www.w3.org/1999/xlink" width="200" height="200"><defs><style type="text/css"></style></defs><path d="M633.6 217.6l108.8 0L512 64 281.6 217.6 384 217.6l0 275.2 249.6 0L633.6 217.6zM435.2 172.8 512 121.6l76.8 51.2L588.8 448 435.2 448 435.2 172.8z" fill="#FC3F45" p-id="7503"></path><path d="M627.2 761.6l76.8-102.4 179.2 0-64 249.6L204.8 908.8l-64-249.6 179.2 0 76.8 102.4L627.2 761.6zM838.4 281.6l-147.2 0c-12.8 0-25.6 12.8-25.6 25.6 0 12.8 12.8 25.6 25.6 25.6l108.8 0c12.8 0 19.2 6.4 25.6 19.2L876.8 576c6.4 12.8-6.4 32-25.6 32l-160 0c-6.4 0-12.8 6.4-19.2 12.8l-57.6 83.2c-6.4 6.4-12.8 12.8-19.2 12.8L435.2 716.8c-6.4 0-12.8-6.4-19.2-12.8L358.4 620.8C352 614.4 345.6 608 339.2 608L172.8 608C160 608 147.2 595.2 147.2 576l51.2-224c0-12.8 12.8-19.2 25.6-19.2l108.8 0c12.8 0 25.6-12.8 25.6-25.6 0-12.8-12.8-25.6-25.6-25.6L185.6 281.6c-12.8 0-19.2 6.4-25.6 19.2L89.6 627.2c0 6.4 0 6.4 0 12.8l76.8 300.8c0 12.8 12.8 19.2 25.6 19.2l652.8 0c12.8 0 19.2-6.4 25.6-19.2l76.8-300.8c0-6.4 0-6.4 0-12.8l-76.8-326.4C857.6 288 851.2 281.6 838.4 281.6z" p-id="7504"></path></svg>