<?xml version="1.0" standalone="no"?><!DOCTYPE svg PUBLIC "-//W3C//DTD SVG 1.1//EN" "http://www.w3.org/Graphics/SVG/1.1/DTD/svg11.dtd"><svg t="1572512414611" class="icon" viewBox="0 0 1093 1024" version="1.1" xmlns="http://www.w3.org/2000/svg" p-id="13494" width="213.4765625" height="200" xmlns:xlink="http://www.w3.org/1999/xlink"><defs><style type="text/css"></style></defs><path d="M1080.32 364.885333L574.737067 13.175467a54.203733 54.203733 0 0 0-12.561067-8.874667c-14.336-8.874667-35.84-3.549867-46.626133 12.424533L13.653333 366.592c-16.110933 10.717867-17.885867 33.792-5.3248 51.541333 12.4928 17.749333 35.84 23.074133 50.176 12.424534l34.065067-24.849067V983.04a39.594667 39.594667 0 0 0 39.458133 39.1168 39.594667 39.594667 0 0 0 39.389867-39.1168V350.685867l376.490667-261.12 380.040533 264.669866v627.0976a39.594667 39.594667 0 0 0 39.458133 39.1168 39.594667 39.594667 0 0 0 39.458134-39.1168V411.101867l26.897066 17.749333c16.110933 10.6496 37.614933 5.3248 50.176-12.424533 12.561067-17.749333 10.786133-40.891733-3.549866-51.541334zM365.021867 897.8432H300.373333c-25.053867 0-30.446933 5.3248-30.446933 30.242133v65.7408c0 24.849067 5.393067 30.173867 30.446933 30.173867h64.580267c25.053867 0 30.446933-5.3248 30.446933-30.173867v-65.7408c-1.774933-24.917333-7.168-30.242133-30.446933-30.242133z m0-214.971733H300.373333c-25.053867 0-30.446933 5.393067-30.446933 30.242133v63.965867c0 24.849067 5.393067 30.173867 30.446933 30.173866h64.580267c25.053867 0 30.446933-5.3248 30.446933-30.173866v-65.7408c-1.774933-23.074133-7.168-28.4672-30.446933-28.4672z m215.04 215.04h-64.512c-25.053867 0-30.446933 5.256533-30.446934 30.173866v65.7408c0 24.849067 5.393067 30.173867 30.446934 30.173867h64.580266c25.053867 0 30.446933-5.3248 30.446934-30.173867v-65.7408c-1.774933-24.917333-7.168-30.242133-30.446934-30.242133z m215.176533 0h-64.512c-25.122133 0-30.5152 5.256533-30.5152 30.173866v65.7408c0 24.849067 5.461333 30.173867 30.5152 30.173867h64.512c25.122133 0 30.5152-5.3248 30.5152-30.173867v-65.7408c-1.8432-24.917333-7.168-30.242133-30.5152-30.242133z m-215.108267-215.04h-64.580266c-25.053867 0-30.446933 5.393067-30.446934 30.242133v63.965867c0 24.849067 5.393067 30.173867 30.446934 30.173866h64.580266c25.053867 0 30.446933-5.3248 30.446934-30.173866v-65.7408c-1.774933-23.074133-7.168-28.4672-30.446934-28.4672zM365.021867 467.968H300.373333c-25.053867 0-30.446933 5.3248-30.446933 30.173867v65.7408c0 24.849067 5.393067 30.173867 30.446933 30.173866h64.580267c25.053867 0 30.446933-5.3248 30.446933-30.173866v-65.7408c-1.774933-26.624-7.168-30.173867-30.446933-30.173867z" fill="#ffffff" p-id="13495"></path></svg>